<svg preserveAspectRatio="xMidYMid meet" width="100%" height="100%" overflow="visible" style="display: block;" viewBox="0 0 1637.77 763" fill="none" xmlns="http://www.w3.org/2000/svg">
<g id="Footer_bg">
<g id="other-milk-grinning">
<path id="Other" d="M793.108 159.866V248.531C793.108 255.131 796.265 258.431 802.577 258.431H890.382C896.694 258.431 899.851 255.131 899.851 248.531V159.866C899.851 153.267 903.007 149.967 909.32 149.967H966.134C972.447 149.967 975.603 153.267 975.603 159.866V441.357C975.603 447.956 972.447 451.256 966.134 451.256H909.32C903.007 451.256 899.851 447.956 899.851 441.357V350.539C899.851 343.94 896.694 340.64 890.382 340.64H802.577C796.265 340.64 793.108 343.94 793.108 350.539V441.357C793.108 447.956 789.952 451.256 783.639 451.256H726.825C720.512 451.256 717.355 447.956 717.355 441.357V159.866C717.355 153.267 720.512 149.967 726.825 149.967H783.639C789.952 149.967 793.108 153.267 793.108 159.866Z" fill="var(--fill-0, #FE2357)"/>
<path id="Other_2" d="M1455.37 350.97V441.357C1455.37 447.956 1452.22 451.256 1445.9 451.256H1390.38C1384.07 451.256 1380.91 447.956 1380.91 441.357V159.866C1380.91 153.267 1384.07 149.967 1390.38 149.967L1484.21 149.967C1518.36 149.967 1543.89 158.432 1560.82 175.361C1578.04 192.291 1586.65 215.82 1586.65 245.949C1586.65 276.652 1575.46 302.477 1553.08 323.423C1549.06 327.154 1549.06 331.458 1553.08 336.336L1635.28 436.622C1637.87 439.491 1638.44 442.648 1637.01 446.091C1635.86 449.534 1633.28 451.256 1629.26 451.256H1559.96C1552.5 451.256 1546.33 448.243 1541.45 442.217L1466.56 347.527C1464.55 344.657 1462.11 343.653 1459.25 344.514C1456.66 345.088 1455.37 347.24 1455.37 350.97ZM1460.11 268.33H1493.25C1498.99 268.33 1503.72 266.609 1507.45 263.166C1511.18 259.435 1513.05 254.414 1513.05 248.101C1513.05 241.788 1511.18 236.91 1507.45 233.467C1503.72 229.737 1498.99 227.872 1493.25 227.872H1460.11C1453.79 227.872 1450.64 231.171 1450.64 237.771V258.431C1450.64 265.031 1453.79 268.33 1460.11 268.33Z" fill="var(--fill-0, #FE2357)"/>
<path id="Other_3" d="M1251.23 446.523H1157.83C1151.51 446.523 1148.36 449.823 1148.36 456.423V471.918C1148.36 478.518 1151.51 481.817 1157.83 481.817H1272.75C1279.06 481.817 1282.21 485.117 1282.21 491.717V552.405C1282.21 559.005 1279.06 562.305 1272.75 562.305H1083.79C1077.48 562.305 1074.33 559.005 1074.33 552.405V270.915C1074.33 264.315 1077.48 261.015 1083.79 261.015L1272.75 261.015C1279.06 261.015 1282.21 264.315 1282.21 270.915V331.603C1282.21 338.203 1279.06 341.503 1272.75 341.503H1157.83C1151.51 341.503 1148.36 344.802 1148.36 351.402V367.327C1148.36 373.927 1151.51 377.227 1157.83 377.227H1251.23C1257.54 377.227 1260.69 380.527 1260.69 387.126V436.624C1260.69 443.224 1257.54 446.523 1251.23 446.523Z" fill="var(--fill-0, #FE2357)"/>
<path id="Other_4" d="M442.751 341.933H371.733C365.42 341.933 362.264 338.633 362.264 332.033V270.915C362.264 264.315 365.42 261.015 371.733 261.015L608.46 261.015C614.773 261.015 617.929 264.315 617.929 270.915V332.033C617.929 338.633 614.773 341.933 608.46 341.933L537.442 341.933C531.129 341.933 527.973 345.233 527.973 351.832V552.405C527.973 559.005 524.816 562.304 518.504 562.304H461.689C455.376 562.304 452.22 559.005 452.22 552.405L452.22 351.832C452.22 345.233 449.064 341.933 442.751 341.933Z" fill="var(--fill-0, #FE2357)"/>
<path id="Other_5" d="M258.678 406.995C230.271 436.264 194.26 450.898 150.645 450.898C107.029 450.898 71.0182 436.407 42.6109 407.426C14.2036 378.158 0 340.999 0 295.949C0 250.899 14.2036 213.883 42.6109 184.902C71.0182 155.634 107.029 141 150.645 141C194.26 141 230.271 155.634 258.678 184.902C287.086 213.883 301.289 250.755 301.289 295.518C301.289 340.568 287.086 377.727 258.678 406.995ZM202.294 243.869C188.808 229.809 171.591 222.779 150.645 222.779C129.698 222.779 112.481 229.809 98.9951 243.869C85.5088 257.929 78.7656 275.145 78.7656 295.518C78.7656 316.178 85.5088 333.682 98.9951 348.029C112.768 362.089 129.985 369.119 150.645 369.119C171.591 369.119 188.808 362.089 202.294 348.029C215.781 333.969 222.524 316.609 222.524 295.949C222.524 275.289 215.781 257.929 202.294 243.869Z" fill="var(--fill-0, #FE2357)"/>
</g>
<path id="Union" d="M787.251 644.529L783.476 694.688L771.79 693.789L775.565 643.63L787.251 644.529ZM865.815 683.361L880.019 681.924L880.917 691.991L855.028 694.508L850.354 644.35L862.04 643.271L865.815 683.361ZM675.607 624.034L679.023 661.429L701.316 631.405L714.081 635.001L700.417 683.361L689.451 680.306L697.9 650.282L679.023 677.429L670.754 675.092L668.416 642.012L659.967 672.035L649 668.8L662.663 620.438L675.607 624.034ZM962.897 648.844L989.146 667.182L975.662 671.137L953.908 655.495L960.021 675.811L948.875 679.227L934.492 631.045L945.639 627.63L951.751 648.125L961.279 622.955L974.763 619L962.897 648.844Z" fill="var(--fill-0, #FE2357)"/>
</g>
</svg>
