<svg width="165" height="44" viewBox="0 0 165 44" fill="none" xmlns="http://www.w3.org/2000/svg">
<path d="M60.9512 12.0225C61.5833 12.0226 61.8994 12.3527 61.8994 13.0137V19.1357C61.8994 19.7967 61.5833 20.1278 60.9512 20.1279H53.8369C53.2046 20.1279 52.8887 20.4582 52.8887 21.1191V41.2109C52.8887 41.872 52.5718 42.2021 51.9395 42.2021H46.249C45.6167 42.2021 45.2998 41.872 45.2998 41.2109V21.1191C45.2997 20.4582 44.9838 20.1279 44.3516 20.1279H37.2373C36.6051 20.1278 36.2891 19.7967 36.2891 19.1357V13.0137C36.2891 12.3527 36.6052 12.0226 37.2373 12.0225H60.9512ZM127.493 12.0225C128.125 12.0225 128.441 12.3526 128.441 13.0137V19.0928C128.441 19.7539 128.126 20.085 127.493 20.085H115.981C115.349 20.085 115.033 20.4152 115.033 21.0762V22.6719C115.033 23.3327 115.349 23.6631 115.981 23.6631H125.338C125.97 23.6632 126.286 23.9943 126.286 24.6553V29.6133C126.286 30.2741 125.97 30.6043 125.338 30.6045H115.981C115.349 30.6045 115.033 30.9356 115.033 31.5967V33.1484C115.033 33.8095 115.349 34.1396 115.981 34.1396H127.493C128.126 34.1396 128.441 34.4707 128.441 35.1318V41.2109C128.441 41.872 128.126 42.2021 127.493 42.2021H108.565C107.933 42.202 107.617 41.8719 107.617 41.2109V13.0137C107.617 12.3527 107.933 12.0226 108.565 12.0225H127.493ZM78.498 0.898438C79.1303 0.898438 79.4462 1.22876 79.4463 1.88965V10.7715C79.4463 11.4326 79.7632 11.7637 80.3955 11.7637H89.1904C89.8228 11.7637 90.1396 11.4326 90.1396 10.7715V1.88965C90.1397 1.22876 90.4556 0.898437 91.0879 0.898438H96.7793C97.4113 0.898576 97.7274 1.2289 97.7275 1.88965V30.0869C97.7275 30.7479 97.4114 31.079 96.7793 31.0791H91.0879C90.4555 31.0791 90.1396 30.748 90.1396 30.0869V20.9902C90.1396 20.3291 89.8228 19.998 89.1904 19.998H80.3955C79.7632 19.998 79.4463 20.3291 79.4463 20.9902V30.0869C79.4463 30.748 79.1304 31.0791 78.498 31.0791H72.8066C72.1745 31.079 71.8584 30.7479 71.8584 30.0869V1.88965C71.8585 1.22886 72.1746 0.898538 72.8066 0.898438H78.498ZM148.676 0.898438C152.096 0.898446 154.655 1.74653 156.351 3.44238C158.075 5.13817 158.937 7.49497 158.938 10.5127C158.938 13.5882 157.816 16.1752 155.574 18.2734C155.172 18.6471 155.172 19.0787 155.574 19.5674L163.81 29.6133C164.068 29.9006 164.125 30.2168 163.981 30.5615C163.866 30.9064 163.607 31.0791 163.205 31.0791H156.264C155.517 31.079 154.899 30.7772 154.41 30.1738L146.908 20.6885C146.707 20.401 146.462 20.3005 146.175 20.3867C145.916 20.4443 145.787 20.6597 145.787 21.0332V30.0869C145.787 30.7479 145.471 31.079 144.839 31.0791H139.276C138.644 31.079 138.328 30.7479 138.328 30.0869V1.88965C138.328 1.22886 138.644 0.89854 139.276 0.898438H148.676ZM15.0898 0C19.4588 0 23.0665 1.46574 25.9121 4.39746C28.7577 7.30054 30.1807 10.9945 30.1807 15.4785C30.1806 19.9911 28.7577 23.7137 25.9121 26.6455C23.0665 29.5772 19.4587 31.043 15.0898 31.043C10.7211 31.0429 7.11402 29.5913 4.26855 26.6885C1.42297 23.7567 1.32755e-05 20.0342 0 15.5215C0 11.0088 1.42296 7.30054 4.26855 4.39746C7.11402 1.46588 10.7212 9.48713e-05 15.0898 0ZM15.0898 8.19141C12.9918 8.1915 11.2669 8.89636 9.91602 10.3047C8.56528 11.7131 7.88965 13.4379 7.88965 15.4785C7.88969 17.5478 8.56528 19.3012 9.91602 20.7383C11.2956 22.1466 13.0205 22.8505 15.0898 22.8506C17.188 22.8506 18.9128 22.1466 20.2637 20.7383C21.6146 19.3299 22.29 17.591 22.29 15.5215C22.29 13.452 21.6146 11.7131 20.2637 10.3047C18.9127 8.89633 17.1881 8.19141 15.0898 8.19141ZM146.262 8.70215C145.63 8.70215 145.313 9.03255 145.312 9.69336V11.7637C145.313 12.4245 145.629 12.7549 146.262 12.7549H149.581C150.156 12.7549 150.63 12.5822 151.004 12.2373C151.377 11.8637 151.564 11.3608 151.564 10.7285C151.564 10.0962 151.378 9.60761 151.004 9.2627C150.63 8.88903 150.156 8.70215 149.581 8.70215H146.262Z" fill="#FE2357"/>
</svg>
