<svg width="16" height="16" viewBox="0 0 16 16" fill="none" xmlns="http://www.w3.org/2000/svg">
<rect width="16" height="16" fill="#FFF9F1"/>
<path d="M11.8396 12.1179C10.7591 13.2312 9.38927 13.7879 7.73023 13.7879C6.07119 13.7879 4.70139 13.2367 3.62084 12.1343C2.54028 11.021 2 9.60756 2 7.89395C2 6.18034 2.54028 4.77234 3.62084 3.66995C4.70139 2.55665 6.07119 2 7.73023 2C9.38927 2 10.7591 2.55665 11.8396 3.66995C12.9202 4.77234 13.4605 6.17488 13.4605 7.87758C13.4605 9.59119 12.9202 11.0046 11.8396 12.1179ZM9.69488 5.91293C9.18189 5.37811 8.527 5.1107 7.73023 5.1107C6.93345 5.1107 6.27857 5.37811 5.76558 5.91293C5.25259 6.44775 4.99609 7.10263 4.99609 7.87758C4.99609 8.66344 5.25259 9.32924 5.76558 9.87497C6.28948 10.4098 6.94437 10.6772 7.73023 10.6772C8.527 10.6772 9.18189 10.4098 9.69488 9.87497C10.2079 9.34015 10.4644 8.67981 10.4644 7.89395C10.4644 7.10809 10.2079 6.44775 9.69488 5.91293Z" fill="#FE2357"/>
<path d="M1.93616 1.43945L1.7467 1.62793L1.93616 1.81641L1.81702 1.93555L1.62756 1.74609L1.43909 1.93555L1.31995 1.81641L1.50842 1.62793L1.31995 1.43945L1.43909 1.32031L1.62756 1.50879L1.81702 1.32031L1.93616 1.43945Z" fill="#FE2357"/>
<path d="M14.7188 1.43945L14.5293 1.62793L14.7188 1.81641L14.5996 1.93555L14.4102 1.74609L14.2217 1.93555L14.1025 1.81641L14.291 1.62793L14.1025 1.43945L14.2217 1.32031L14.4102 1.50879L14.5996 1.32031L14.7188 1.43945Z" fill="#FE2357"/>
<path d="M1.93616 14.1592L1.7467 14.3477L1.93616 14.5371L1.81702 14.6562L1.62756 14.4668L1.43909 14.6562L1.31995 14.5371L1.50842 14.3477L1.31995 14.1592L1.43909 14.04L1.62756 14.2285L1.81702 14.04L1.93616 14.1592Z" fill="#FE2357"/>
<path d="M14.7188 14.1592L14.5293 14.3477L14.7188 14.5371L14.5996 14.6562L14.4102 14.4668L14.2217 14.6562L14.1025 14.5371L14.291 14.3477L14.1025 14.1592L14.2217 14.04L14.4102 14.2285L14.5996 14.04L14.7188 14.1592Z" fill="#FE2357"/>
</svg>
